<svg width="32" height="30" viewBox="0 0 32 30" fill="none" xmlns="http://www.w3.org/2000/svg">
<path d="M2.496 29.344L0.832 27.552L29.696 0.799999L31.296 2.592L2.496 29.344ZM16 29.216C14.08 29.216 12.2667 28.8533 10.56 28.128C8.896 27.4027 7.40267 26.4 6.08 25.12C4.8 23.7973 3.79733 22.2827 3.072 20.576C2.34667 18.8693 1.984 17.056 1.984 15.136C1.984 13.216 2.34667 11.4027 3.072 9.696C3.79733 7.98933 4.8 6.496 6.08 5.216C7.40267 3.936 8.896 2.93333 10.56 2.208C12.2667 1.48267 14.08 1.12 16 1.12C17.92 1.12 19.7333 1.48267 21.44 2.208C23.1467 2.93333 24.64 3.936 25.92 5.216C27.2427 6.496 28.2667 7.98933 28.992 9.696C29.76 11.4027 30.144 13.216 30.144 15.136C30.144 17.056 29.76 18.8693 28.992 20.576C28.2667 22.2827 27.2427 23.7973 25.92 25.12C24.64 26.4 23.1467 27.4027 21.44 28.128C19.7333 28.8533 17.92 29.216 16 29.216ZM16 25.76C17.4933 25.76 18.88 25.4827 20.16 24.928C21.44 24.3733 22.5493 23.6053 23.488 22.624C24.4693 21.6427 25.2373 20.512 25.792 19.232C26.3467 17.952 26.624 16.5867 26.624 15.136C26.624 13.6853 26.3467 12.3413 25.792 11.104C25.2373 9.824 24.4693 8.71467 23.488 7.776C22.5493 6.79467 21.44 6.02667 20.16 5.472C18.88 4.91733 17.4933 4.64 16 4.64C14.5493 4.64 13.184 4.91733 11.904 5.472C10.624 6.02667 9.49333 6.79467 8.512 7.776C7.57333 8.71467 6.82667 9.824 6.272 11.104C5.76 12.3413 5.504 13.6853 5.504 15.136C5.504 16.5867 5.76 17.952 6.272 19.232C6.82667 20.512 7.57333 21.6427 8.512 22.624C9.49333 23.6053 10.624 24.3733 11.904 24.928C13.184 25.4827 14.5493 25.76 16 25.76Z" fill="#0000FF"/>
</svg>
